<svg xmlns="http://www.w3.org/2000/svg" viewBox="0 0 1280 720" data-pptx-page-role="content">
  <rect x="0" y="0" width="1280" height="720" fill="#07131A"/>
  <g id="header">
    <text x="56" y="76" font-family="Consolas, SimHei, 'Microsoft YaHei', monospace" font-size="56" font-weight="700" fill="#F0FAFF">80% 的分数，取决于“做出来”与“有新意”</text>
    <text x="58" y="122" font-family="'Microsoft YaHei', 'Segoe UI', Arial, sans-serif" font-size="32" fill="#A9C4CF">后续页面按评分项组织证据，而不是按技术栈罗列名词</text>
  </g>
  <g id="kpi-function">
    <rect x="56" y="176" width="270" height="374" rx="14" fill="#0E2530" stroke="#00B8D9" stroke-width="2"/>
    <rect x="56" y="176" width="270" height="8" rx="4" fill="#00B8D9"/>
    <text x="86" y="238" font-family="Consolas, SimHei, 'Microsoft YaHei', sans-serif" font-size="24" font-weight="700" fill="#00B8D9">FUNCTION &amp; TECH</text>
    <text x="86" y="330" font-family="Consolas, SimHei, 'Microsoft YaHei', sans-serif" font-size="64" font-weight="700" fill="#F0FAFF">45%</text>
    <text x="86" y="382" font-family="'Microsoft YaHei', 'Segoe UI', Arial, sans-serif" font-size="32" font-weight="700" fill="#F0FAFF">功能与技术</text>
    <text x="86" y="430" font-family="'Microsoft YaHei', 'Segoe UI', Arial, sans-serif" font-size="24" fill="#A9C4CF">核心功能完整性</text>
    <text x="86" y="464" font-family="'Microsoft YaHei', 'Segoe UI', Arial, sans-serif" font-size="24" fill="#A9C4CF">系统实现与体验</text>
    <!-- icon: phosphor-duotone/check-circle -->
  <g transform="translate(244, 484) scale(0.1875)" fill="#52D6A2">
    <path d="M224,128a96,96,0,1,1-96-96A96,96,0,0,1,224,128Z" opacity="0.2"/>
    <path d="M173.66,98.34a8,8,0,0,1,0,11.32l-56,56a8,8,0,0,1-11.32,0l-24-24a8,8,0,0,1,11.32-11.32L112,148.69l50.34-50.35A8,8,0,0,1,173.66,98.34ZM232,128A104,104,0,1,1,128,24,104.11,104.11,0,0,1,232,128Zm-16,0a88,88,0,1,0-88,88A88.1,88.1,0,0,0,216,128Z"/>
  </g>
  </g>
  <g id="kpi-innovation">
    <rect x="356" y="176" width="270" height="374" rx="14" fill="#0E2530" stroke="#FFD166" stroke-width="2"/>
    <rect x="356" y="176" width="270" height="8" rx="4" fill="#FFD166"/>
    <text x="386" y="238" font-family="Consolas, SimHei, 'Microsoft YaHei', sans-serif" font-size="24" font-weight="700" fill="#FFD166">INNOVATION</text>
    <text x="386" y="330" font-family="Consolas, SimHei, 'Microsoft YaHei', sans-serif" font-size="64" font-weight="700" fill="#F0FAFF">35%</text>
    <text x="386" y="382" font-family="'Microsoft YaHei', 'Segoe UI', Arial, sans-serif" font-size="32" font-weight="700" fill="#F0FAFF">创新与实用</text>
    <text x="386" y="430" font-family="'Microsoft YaHei', 'Segoe UI', Arial, sans-serif" font-size="24" fill="#A9C4CF">多智能体融合</text>
    <text x="386" y="464" font-family="'Microsoft YaHei', 'Segoe UI', Arial, sans-serif" font-size="24" fill="#A9C4CF">教育场景可落地</text>
    <!-- icon: phosphor-duotone/sparkle -->
  <g transform="translate(544, 484) scale(0.1875)" fill="#FFD166">
    <path d="M194.82,151.43l-51.66,19a7.88,7.88,0,0,0-4.69,4.69l-19,51.66a7.92,7.92,0,0,1-14.86,0l-19-51.66a7.88,7.88,0,0,0-4.69-4.69l-51.66-19a7.92,7.92,0,0,1,0-14.86l51.66-19a7.88,7.88,0,0,0,4.69-4.69l19-51.66a7.92,7.92,0,0,1,14.86,0l19,51.66a7.88,7.88,0,0,0,4.69,4.69l51.66,19A7.92,7.92,0,0,1,194.82,151.43Z" opacity="0.2"/>
    <path d="M197.58,129.06l-51.61-19-19-51.65a15.92,15.92,0,0,0-29.88,0L78.07,110l-51.65,19a15.92,15.92,0,0,0,0,29.88L78,178l19,51.62a15.92,15.92,0,0,0,29.88,0l19-51.61,51.65-19a15.92,15.92,0,0,0,0-29.88ZM140.39,163a15.87,15.87,0,0,0-9.43,9.43l-19,51.46L93,172.39A15.87,15.87,0,0,0,83.61,163h0L32.15,144l51.46-19A15.87,15.87,0,0,0,93,115.61l19-51.46,19,51.46a15.87,15.87,0,0,0,9.43,9.43l51.46,19ZM144,40a8,8,0,0,1,8-8h16V16a8,8,0,0,1,16,0V32h16a8,8,0,0,1,0,16H184V64a8,8,0,0,1-16,0V48H152A8,8,0,0,1,144,40ZM248,88a8,8,0,0,1-8,8h-8v8a8,8,0,0,1-16,0V96h-8a8,8,0,0,1,0-16h8V72a8,8,0,0,1,16,0v8h8A8,8,0,0,1,248,88Z"/>
  </g>
  </g>
  <g id="kpi-docs">
    <rect x="656" y="176" width="270" height="374" rx="14" fill="#0E2530" stroke="#3D7EFF" stroke-width="2"/>
    <rect x="656" y="176" width="270" height="8" rx="4" fill="#3D7EFF"/>
    <text x="686" y="238" font-family="Consolas, SimHei, 'Microsoft YaHei', sans-serif" font-size="24" font-weight="700" fill="#3D7EFF">DOCUMENTS</text>
    <text x="686" y="330" font-family="Consolas, SimHei, 'Microsoft YaHei', sans-serif" font-size="64" font-weight="700" fill="#F0FAFF">10%</text>
    <text x="686" y="382" font-family="'Microsoft YaHei', 'Segoe UI', Arial, sans-serif" font-size="32" font-weight="700" fill="#F0FAFF">文档质量</text>
    <text x="686" y="430" font-family="'Microsoft YaHei', 'Segoe UI', Arial, sans-serif" font-size="24" fill="#A9C4CF">架构与实现说明</text>
    <text x="686" y="464" font-family="'Microsoft YaHei', 'Segoe UI', Arial, sans-serif" font-size="24" fill="#A9C4CF">完整交付材料</text>
    <!-- icon: phosphor-duotone/file-doc -->
  <g transform="translate(844, 484) scale(0.1875)" fill="#3D7EFF">
    <path d="M208,88H152V32Z" opacity="0.2"/>
    <path d="M52,144H36a8,8,0,0,0-8,8v56a8,8,0,0,0,8,8H52a36,36,0,0,0,0-72Zm0,56H44V160h8a20,20,0,0,1,0,40Zm169.53-4.91a8,8,0,0,1,.25,11.31A30.06,30.06,0,0,1,200,216c-17.65,0-32-16.15-32-36s14.35-36,32-36a30.06,30.06,0,0,1,21.78,9.6,8,8,0,0,1-11.56,11.06A14.24,14.24,0,0,0,200,160c-8.82,0-16,9-16,20s7.18,20,16,20a14.18,14.18,0,0,0,10.22-4.66A8,8,0,0,1,221.53,195.09ZM128,144c-17.64,0-32,16.15-32,36s14.36,36,32,36,32-16.15,32-36S145.64,144,128,144Zm0,56c-8.82,0-16-9-16-20s7.18-20,16-20,16,9,16,20S136.82,200,128,200ZM48,120a8,8,0,0,0,8-8V40h88V88a8,8,0,0,0,8,8h48v16a8,8,0,0,0,16,0V88a8,8,0,0,0-2.34-5.66l-56-56A8,8,0,0,0,152,24H56A16,16,0,0,0,40,40v72A8,8,0,0,0,48,120ZM160,51.31,188.69,80H160Z"/>
  </g>
  </g>
  <g id="kpi-presentation">
    <rect x="956" y="176" width="270" height="374" rx="14" fill="#0E2530" stroke="#1B4351" stroke-width="2"/>
    <rect x="956" y="176" width="270" height="8" rx="4" fill="#A9C4CF"/>
    <text x="986" y="238" font-family="Consolas, SimHei, 'Microsoft YaHei', sans-serif" font-size="24" font-weight="700" fill="#A9C4CF">PRESENTATION</text>
    <text x="986" y="330" font-family="Consolas, SimHei, 'Microsoft YaHei', sans-serif" font-size="64" font-weight="700" fill="#F0FAFF">10%</text>
    <text x="986" y="382" font-family="'Microsoft YaHei', 'Segoe UI', Arial, sans-serif" font-size="32" font-weight="700" fill="#F0FAFF">视频与 PPT</text>
    <text x="986" y="430" font-family="'Microsoft YaHei', 'Segoe UI', Arial, sans-serif" font-size="24" fill="#A9C4CF">逻辑与演示表达</text>
    <text x="986" y="464" font-family="'Microsoft YaHei', 'Segoe UI', Arial, sans-serif" font-size="24" fill="#A9C4CF">项目价值可视化</text>
    <!-- icon: phosphor-duotone/monitor-play -->
  <g transform="translate(1144, 484) scale(0.1875)" fill="#A9C4CF">
    <path d="M208,48H48A16,16,0,0,0,32,64V176a16,16,0,0,0,16,16H208a16,16,0,0,0,16-16V64A16,16,0,0,0,208,48ZM112,152V88l48,32Z" opacity="0.2"/>
    <path d="M208,40H48A24,24,0,0,0,24,64V176a24,24,0,0,0,24,24H208a24,24,0,0,0,24-24V64A24,24,0,0,0,208,40Zm8,136a8,8,0,0,1-8,8H48a8,8,0,0,1-8-8V64a8,8,0,0,1,8-8H208a8,8,0,0,1,8,8Zm-48,48a8,8,0,0,1-8,8H96a8,8,0,0,1,0-16h64A8,8,0,0,1,168,224Zm-3.56-110.66-48-32A8,8,0,0,0,104,88v64a8,8,0,0,0,12.44,6.66l48-32a8,8,0,0,0,0-13.32ZM120,137.05V103l25.58,17Z"/>
  </g>
  </g>
  <g id="weight-summary">
    <rect x="356" y="580" width="570" height="58" rx="8" fill="#0E2530" stroke="#FFD166" stroke-width="1"/>
    <text x="641" y="619" text-anchor="middle" font-family="Consolas, SimHei, 'Microsoft YaHei', sans-serif" font-size="32" font-weight="700" fill="#FFD166">45% + 35% = 80% · 重点证据区</text>
  </g>
  <g id="footer">
    <text x="56" y="686" font-family="'Microsoft YaHei', 'Segoe UI', Arial, sans-serif" font-size="18" fill="#6F8D98">来源：cnsoftbei.com/content-3-1286-1.html</text>
    <text x="1224" y="686" text-anchor="end" font-family="Consolas, 'Microsoft YaHei', monospace" font-size="18" fill="#6F8D98">05 / 20</text>
  </g>
</svg>
