<svg xmlns="http://www.w3.org/2000/svg" viewBox="0 0 1280 720" data-pptx-page-role="content">
  <rect x="0" y="0" width="1280" height="720" fill="#07131A"/>
  <g id="header"><text x="56" y="74" font-family="Consolas, SimHei, 'Microsoft YaHei', monospace" font-size="56" font-weight="700" fill="#F0FAFF">八维动态画像，是所有智能体的共同状态</text><text x="58" y="118" font-family="'Microsoft YaHei', 'Segoe UI', Arial, sans-serif" font-size="32" fill="#A9C4CF">既描述“学得怎样”，也描述“如何学得更好”</text></g>
  <g id="profile-wheel">
    <circle cx="640" cy="388" r="214" fill="none" stroke="#1B4351" stroke-width="2" stroke-dasharray="8 6"/>
    <circle cx="640" cy="388" r="112" fill="#0E2530" stroke="#00B8D9" stroke-width="3"/>
    <!-- icon: phosphor-duotone/student -->
  <g transform="translate(606, 324) scale(0.265625)" fill="#00B8D9">
    <path d="M224,64,128,96,32,64l96-32Z" opacity="0.2"/>
    <path d="M226.53,56.41l-96-32a8,8,0,0,0-5.06,0l-96,32a8,8,0,0,0-5.4,6.75A5,5,0,0,0,24,64v80a8,8,0,0,0,16,0V75.1L73.59,86.29a64,64,0,0,0,20.65,88.05c-18,7.06-33.56,19.83-44.94,37.29a8,8,0,1,0,13.4,8.74C77.77,197.25,101.57,184,128,184s50.23,13.25,65.3,36.37a8,8,0,0,0,13.4-8.74c-11.38-17.46-27-30.23-44.94-37.29a64,64,0,0,0,20.65-88l44.12-14.7a8,8,0,0,0,0-15.18ZM176,120A48,48,0,1,1,89.35,91.55l36.12,12a8,8,0,0,0,5.06,0l36.12-12A47.89,47.89,0,0,1,176,120ZM128,87.57,57.3,64,128,40.43,198.7,64Z"/>
  </g>
    <text x="640" y="430" text-anchor="middle" font-family="Consolas, SimHei, 'Microsoft YaHei', sans-serif" font-size="36" font-weight="700" fill="#F0FAFF">学习者</text>
    <text x="640" y="466" text-anchor="middle" font-family="'Microsoft YaHei', 'Segoe UI', Arial, sans-serif" font-size="24" fill="#A9C4CF">动态画像快照</text>
  </g>
  <g id="dimension-mastery"><line x1="640" y1="276" x2="640" y2="194" stroke="#00B8D9" stroke-width="2"/><rect x="510" y="154" width="260" height="64" rx="10" fill="#0E2530" stroke="#00B8D9" stroke-width="1"/><text x="640" y="194" text-anchor="middle" font-family="'Microsoft YaHei', 'Segoe UI', Arial, sans-serif" font-size="24" font-weight="700" fill="#F0FAFF">知识掌握度</text></g>
  <g id="dimension-cognitive"><line x1="719" y1="309" x2="850" y2="220" stroke="#3D7EFF" stroke-width="2"/><rect x="842" y="178" width="270" height="64" rx="10" fill="#0E2530" stroke="#3D7EFF" stroke-width="1"/><text x="977" y="218" text-anchor="middle" font-family="'Microsoft YaHei', 'Segoe UI', Arial, sans-serif" font-size="24" font-weight="700" fill="#F0FAFF">认知风格</text></g>
  <g id="dimension-error"><line x1="752" y1="388" x2="920" y2="388" stroke="#FFD166" stroke-width="2"/><rect x="912" y="356" width="280" height="64" rx="10" fill="#0E2530" stroke="#FFD166" stroke-width="1"/><text x="1052" y="396" text-anchor="middle" font-family="'Microsoft YaHei', 'Segoe UI', Arial, sans-serif" font-size="24" font-weight="700" fill="#F0FAFF">易错与偏好</text></g>
  <g id="dimension-multimodal"><line x1="719" y1="467" x2="850" y2="556" stroke="#52D6A2" stroke-width="2"/><rect x="842" y="534" width="270" height="64" rx="10" fill="#0E2530" stroke="#52D6A2" stroke-width="1"/><text x="977" y="574" text-anchor="middle" font-family="'Microsoft YaHei', 'Segoe UI', Arial, sans-serif" font-size="24" font-weight="700" fill="#F0FAFF">多模态偏好</text></g>
  <g id="dimension-active"><line x1="640" y1="500" x2="640" y2="580" stroke="#00B8D9" stroke-width="2"/><rect x="510" y="566" width="260" height="64" rx="10" fill="#0E2530" stroke="#00B8D9" stroke-width="1"/><text x="640" y="606" text-anchor="middle" font-family="'Microsoft YaHei', 'Segoe UI', Arial, sans-serif" font-size="24" font-weight="700" fill="#F0FAFF">活跃时段</text></g>
  <g id="dimension-rhythm"><line x1="561" y1="467" x2="430" y2="556" stroke="#3D7EFF" stroke-width="2"/><rect x="168" y="534" width="270" height="64" rx="10" fill="#0E2530" stroke="#3D7EFF" stroke-width="1"/><text x="303" y="574" text-anchor="middle" font-family="'Microsoft YaHei', 'Segoe UI', Arial, sans-serif" font-size="24" font-weight="700" fill="#F0FAFF">学习节奏</text></g>
  <g id="dimension-meta"><line x1="528" y1="388" x2="360" y2="388" stroke="#FFD166" stroke-width="2"/><rect x="88" y="356" width="280" height="64" rx="10" fill="#0E2530" stroke="#FFD166" stroke-width="1"/><text x="228" y="396" text-anchor="middle" font-family="'Microsoft YaHei', 'Segoe UI', Arial, sans-serif" font-size="24" font-weight="700" fill="#F0FAFF">元认知校准</text></g>
  <g id="dimension-attention"><line x1="561" y1="309" x2="430" y2="220" stroke="#52D6A2" stroke-width="2"/><rect x="168" y="178" width="270" height="64" rx="10" fill="#0E2530" stroke="#52D6A2" stroke-width="1"/><text x="303" y="218" text-anchor="middle" font-family="'Microsoft YaHei', 'Segoe UI', Arial, sans-serif" font-size="24" font-weight="700" fill="#F0FAFF">注意力特征</text></g>
  <g id="footer"><text x="56" y="686" font-family="'Microsoft YaHei', 'Segoe UI', Arial, sans-serif" font-size="18" fill="#6F8D98">画像维度来自项目当前 PRD 与实现数据链路</text><text x="1224" y="686" text-anchor="end" font-family="Consolas, 'Microsoft YaHei', monospace" font-size="18" fill="#6F8D98">09 / 20</text></g>
</svg>
