<svg xmlns="http://www.w3.org/2000/svg" viewBox="0 0 1280 720" data-pptx-page-role="content">
  <rect x="0" y="0" width="1280" height="720" fill="#07131A"/>
  <g id="header"><text x="56" y="74" font-family="Consolas, SimHei, 'Microsoft YaHei', monospace" font-size="56" font-weight="700" fill="#F0FAFF">可信不是一句口号，而是三层工程约束</text><text x="58" y="118" font-family="'Microsoft YaHei', 'Segoe UI', Arial, sans-serif" font-size="32" fill="#A9C4CF">内容要有依据，任务要能追踪，系统要可部署与恢复</text></g>
  <g id="trust-content"><rect x="56" y="166" width="1168" height="136" rx="12" fill="#0E2530" stroke="#FFD166" stroke-width="2"/><!-- icon: phosphor-duotone/shield-check -->
  <g transform="translate(84, 204) scale(0.234375)" fill="#FFD166">
    <path d="M216,56v58.77c0,84.18-71.31,112.07-85.54,116.8a7.54,7.54,0,0,1-4.92,0C111.31,226.86,40,199,40,114.79V56a8,8,0,0,1,8-8H208A8,8,0,0,1,216,56Z" opacity="0.2"/>
    <path d="M208,40H48A16,16,0,0,0,32,56v58.78c0,89.61,75.82,119.34,91,124.39a15.53,15.53,0,0,0,10,0c15.2-5.05,91-34.78,91-124.39V56A16,16,0,0,0,208,40Zm0,74.79c0,78.42-66.35,104.62-80,109.18-13.53-4.51-80-30.69-80-109.18V56H208ZM82.34,141.66a8,8,0,0,1,11.32-11.32L112,148.68l50.34-50.34a8,8,0,0,1,11.32,11.32l-56,56a8,8,0,0,1-11.32,0Z"/>
  </g><text x="174" y="212" font-family="Consolas, SimHei, 'Microsoft YaHei', sans-serif" font-size="36" font-weight="700" fill="#FFD166">内容可信</text><text x="174" y="258" font-family="'Microsoft YaHei', 'Segoe UI', Arial, sans-serif" font-size="24" fill="#F0FAFF">RAG 证据约束 · 知识图谱关系校验 · 系统提示词限定输出边界</text><rect x="1000" y="204" width="178" height="54" rx="27" fill="#07131A" stroke="#52D6A2" stroke-width="1"/><text x="1089" y="240" text-anchor="middle" font-family="Consolas, SimHei, 'Microsoft YaHei', sans-serif" font-size="24" font-weight="700" fill="#52D6A2">ANTI-HALLUCINATION</text></g>
  <g id="trust-observe"><rect x="56" y="326" width="1168" height="136" rx="12" fill="#0E2530" stroke="#00B8D9" stroke-width="2"/><!-- icon: phosphor-duotone/chart-line-up -->
  <g transform="translate(84, 364) scale(0.234375)" fill="#00B8D9">
    <path d="M224,56V208H32V48H216A8,8,0,0,1,224,56Z" opacity="0.2"/>
    <path d="M232,208a8,8,0,0,1-8,8H32a8,8,0,0,1-8-8V48a8,8,0,0,1,16,0V156.69l50.34-50.35a8,8,0,0,1,11.32,0L128,132.69,180.69,80H160a8,8,0,0,1,0-16h40a8,8,0,0,1,8,8v40a8,8,0,0,1-16,0V91.31l-58.34,58.35a8,8,0,0,1-11.32,0L96,123.31l-56,56V200H224A8,8,0,0,1,232,208Z"/>
  </g><text x="174" y="372" font-family="Consolas, SimHei, 'Microsoft YaHei', sans-serif" font-size="36" font-weight="700" fill="#00B8D9">任务可观察</text><text x="174" y="418" font-family="'Microsoft YaHei', 'Segoe UI', Arial, sans-serif" font-size="24" fill="#F0FAFF">task_id · SSE 进度 · 状态查询 · 主动取消 · 历史结果与失败定位</text><rect x="1000" y="364" width="178" height="54" rx="27" fill="#07131A" stroke="#52D6A2" stroke-width="1"/><text x="1089" y="400" text-anchor="middle" font-family="Consolas, SimHei, 'Microsoft YaHei', sans-serif" font-size="24" font-weight="700" fill="#52D6A2">TRACEABLE</text></g>
  <g id="trust-deploy"><rect x="56" y="486" width="1168" height="136" rx="12" fill="#0E2530" stroke="#3D7EFF" stroke-width="2"/><!-- icon: phosphor-duotone/database -->
  <g transform="translate(84, 524) scale(0.234375)" fill="#3D7EFF">
    <path d="M216,80c0,26.51-39.4,48-88,48S40,106.51,40,80s39.4-48,88-48S216,53.49,216,80Z" opacity="0.2"/>
    <path d="M128,24C74.17,24,32,48.6,32,80v96c0,31.4,42.17,56,96,56s96-24.6,96-56V80C224,48.6,181.83,24,128,24Zm80,104c0,9.62-7.88,19.43-21.61,26.92C170.93,163.35,150.19,168,128,168s-42.93-4.65-58.39-13.08C55.88,147.43,48,137.62,48,128V111.36c17.06,15,46.23,24.64,80,24.64s62.94-9.68,80-24.64ZM69.61,53.08C85.07,44.65,105.81,40,128,40s42.93,4.65,58.39,13.08C200.12,60.57,208,70.38,208,80s-7.88,19.43-21.61,26.92C170.93,115.35,150.19,120,128,120s-42.93-4.65-58.39-13.08C55.88,99.43,48,89.62,48,80S55.88,60.57,69.61,53.08ZM186.39,202.92C170.93,211.35,150.19,216,128,216s-42.93-4.65-58.39-13.08C55.88,195.43,48,185.62,48,176V159.36c17.06,15,46.23,24.64,80,24.64s62.94-9.68,80-24.64V176C208,185.62,200.12,195.43,186.39,202.92Z"/>
  </g><text x="174" y="532" font-family="Consolas, SimHei, 'Microsoft YaHei', sans-serif" font-size="36" font-weight="700" fill="#3D7EFF">系统可部署</text><text x="174" y="578" font-family="'Microsoft YaHei', 'Segoe UI', Arial, sans-serif" font-size="24" fill="#F0FAFF">JWT 权限 · 代码隔离执行 · Docker Compose · 多数据库职责分离 · Redis 热状态</text><rect x="1000" y="524" width="178" height="54" rx="27" fill="#07131A" stroke="#52D6A2" stroke-width="1"/><text x="1089" y="560" text-anchor="middle" font-family="Consolas, SimHei, 'Microsoft YaHei', sans-serif" font-size="24" font-weight="700" fill="#52D6A2">DEPLOYABLE</text></g>
  <g id="footer"><text x="56" y="686" font-family="'Microsoft YaHei', 'Segoe UI', Arial, sans-serif" font-size="18" fill="#6F8D98">工程基线：FastAPI + Docker Compose + JWT + 隔离执行</text><text x="1224" y="686" text-anchor="end" font-family="Consolas, 'Microsoft YaHei', monospace" font-size="18" fill="#6F8D98">18 / 20</text></g>
</svg>
