<svg xmlns="http://www.w3.org/2000/svg" viewBox="0 0 1280 720" data-pptx-page-role="content">
  <rect x="0" y="0" width="1280" height="720" fill="#07131A"/>
  <g id="header"><text x="56" y="74" font-family="Consolas, SimHei, 'Microsoft YaHei', monospace" font-size="56" font-weight="700" fill="#F0FAFF">知识图谱 + RAG，让生成“有依据、有顺序”</text><text x="58" y="118" font-family="'Microsoft YaHei', 'Segoe UI', Arial, sans-serif" font-size="32" fill="#A9C4CF">RAG 提供证据，图谱提供关系，两者共同支撑资源与路径</text></g>
  <g id="tree-connectors" stroke="#1B4351" stroke-width="3" fill="none"><line x1="640" y1="234" x2="640" y2="274"/><line x1="256" y1="274" x2="1024" y2="274"/><line x1="256" y1="274" x2="256" y2="316"/><line x1="640" y1="274" x2="640" y2="316"/><line x1="1024" y1="274" x2="1024" y2="316"/><line x1="256" y1="456" x2="256" y2="500"/><line x1="640" y1="456" x2="640" y2="500"/><line x1="1024" y1="456" x2="1024" y2="500"/></g>
  <g id="root-document"><rect x="448" y="154" width="384" height="80" rx="12" fill="#0E2530" stroke="#00B8D9" stroke-width="2"/><use data-icon="phosphor-duotone/file-doc" x="476" y="170" width="48" height="48" fill="#00B8D9"/><text x="548" y="204" font-family="Consolas, SimHei, 'Microsoft YaHei', sans-serif" font-size="32" font-weight="700" fill="#F0FAFF">教材 / 文档 / 讲义</text></g>
  <g id="branch-parse"><rect x="88" y="316" width="336" height="140" rx="12" fill="#0E2530" stroke="#FFD166" stroke-width="2"/><text x="120" y="360" font-family="Consolas, SimHei, 'Microsoft YaHei', sans-serif" font-size="32" font-weight="700" fill="#FFD166">知识抽取</text><text x="120" y="404" font-family="'Microsoft YaHei', 'Segoe UI', Arial, sans-serif" font-size="24" fill="#A9C4CF">概念、定义、例题</text><text x="120" y="438" font-family="'Microsoft YaHei', 'Segoe UI', Arial, sans-serif" font-size="24" fill="#A9C4CF">形成知识点节点</text></g>
  <g id="branch-vector"><rect x="472" y="316" width="336" height="140" rx="12" fill="#0E2530" stroke="#3D7EFF" stroke-width="2"/><text x="504" y="360" font-family="Consolas, SimHei, 'Microsoft YaHei', sans-serif" font-size="32" font-weight="700" fill="#3D7EFF">向量证据</text><text x="504" y="404" font-family="'Microsoft YaHei', 'Segoe UI', Arial, sans-serif" font-size="24" fill="#A9C4CF">语义切片与召回</text><text x="504" y="438" font-family="'Microsoft YaHei', 'Segoe UI', Arial, sans-serif" font-size="24" fill="#A9C4CF">回答引用相关上下文</text></g>
  <g id="branch-graph"><rect x="856" y="316" width="336" height="140" rx="12" fill="#0E2530" stroke="#52D6A2" stroke-width="2"/><text x="888" y="360" font-family="Consolas, SimHei, 'Microsoft YaHei', sans-serif" font-size="32" font-weight="700" fill="#52D6A2">关系图谱</text><text x="888" y="404" font-family="'Microsoft YaHei', 'Segoe UI', Arial, sans-serif" font-size="24" fill="#A9C4CF">前置、包含、关联</text><text x="888" y="438" font-family="'Microsoft YaHei', 'Segoe UI', Arial, sans-serif" font-size="24" fill="#A9C4CF">支撑学习顺序推理</text></g>
  <g id="output-grounded"><rect x="88" y="500" width="336" height="106" rx="12" fill="#07131A" stroke="#1B4351" stroke-width="1"/><use data-icon="phosphor-duotone/shield-check" x="118" y="528" width="46" height="46" fill="#FFD166"/><text x="184" y="548" font-family="'Microsoft YaHei', 'Segoe UI', Arial, sans-serif" font-size="24" font-weight="700" fill="#F0FAFF">生成更可信</text><text x="184" y="581" font-family="'Microsoft YaHei', 'Segoe UI', Arial, sans-serif" font-size="24" fill="#A9C4CF">降低无依据输出</text></g>
  <g id="output-answer"><rect x="472" y="500" width="336" height="106" rx="12" fill="#07131A" stroke="#1B4351" stroke-width="1"/><use data-icon="phosphor-duotone/magnifying-glass" x="502" y="528" width="46" height="46" fill="#3D7EFF"/><text x="568" y="548" font-family="'Microsoft YaHei', 'Segoe UI', Arial, sans-serif" font-size="24" font-weight="700" fill="#F0FAFF">回答可追溯</text><text x="568" y="581" font-family="'Microsoft YaHei', 'Segoe UI', Arial, sans-serif" font-size="24" fill="#A9C4CF">召回证据可核验</text></g>
  <g id="output-path"><rect x="856" y="500" width="336" height="106" rx="12" fill="#07131A" stroke="#1B4351" stroke-width="1"/><use data-icon="phosphor-duotone/path" x="886" y="528" width="46" height="46" fill="#52D6A2"/><text x="952" y="548" font-family="'Microsoft YaHei', 'Segoe UI', Arial, sans-serif" font-size="24" font-weight="700" fill="#F0FAFF">路径有顺序</text><text x="952" y="581" font-family="'Microsoft YaHei', 'Segoe UI', Arial, sans-serif" font-size="24" fill="#A9C4CF">尊重前置依赖</text></g>
  <g id="footer"><text x="56" y="686" font-family="'Microsoft YaHei', 'Segoe UI', Arial, sans-serif" font-size="18" fill="#6F8D98">数据基础：pgvector / FAISS + Neo4j</text><text x="1224" y="686" text-anchor="end" font-family="Consolas, 'Microsoft YaHei', monospace" font-size="18" fill="#6F8D98">12 / 20</text></g>
</svg>
